inDegrees=no
num_controls=7
num_derivatives=13
num_iterations=55
num_multipliers=7
num_parameters=0
num_slacks=7
num_states=26
objective=0.459642
objective_accelerations=0.019581
objective_balance=0.001150
objective_effort=0.010714
objective_height=0.423578
objective_ligament=0.004619
solver_duration=861.294819
status=Solve_Succeeded
success=true
DataType=double
version=3
OpenSimVersion=4.5
endheader
time	/jointset/ground_pelvis/pelvis_tilt/value	/jointset/ground_pelvis/pelvis_tx/value	/jointset/ground_pelvis/pelvis_ty/value	/jointset/hip_l/hip_flexion_l/value	/jointset/hip_l/hip_adduction_l/value	/jointset/hip_l/hip_rotation_l/value	/jointset/back/lumbar_extension/value	/jointset/patellofemoral_l/patellar_flexion_l/value	/jointset/knee_l/knee_flexion_l/value	/jointset/knee_l/knee_adduction_l/value	/jointset/knee_l/knee_rotation_l/value	/jointset/ankle_l/ankle_angle_l/value	/jointset/subtalar_l/subtalar_angle_l/value	/jointset/ground_pelvis/pelvis_tilt/speed	/jointset/ground_pelvis/pelvis_tx/speed	/jointset/ground_pelvis/pelvis_ty/speed	/jointset/hip_l/hip_flexion_l/speed	/jointset/hip_l/hip_adduction_l/speed	/jointset/hip_l/hip_rotation_l/speed	/jointset/back/lumbar_extension/speed	/jointset/patellofemoral_l/patellar_flexion_l/speed	/jointset/knee_l/knee_flexion_l/speed	/jointset/knee_l/knee_adduction_l/speed	/jointset/knee_l/knee_rotation_l/speed	/jointset/ankle_l/ankle_angle_l/speed	/jointset/subtalar_l/subtalar_angle_l/speed	/forceset/tau_hip_flexion_l	/forceset/tau_hip_adduction_l	/forceset/tau_hip_rotation_l	/forceset/tau_knee_flexion_l	/forceset/tau_ankle_angle_l	/forceset/tau_subtalar_angle_l	/forceset/tau_lumbar_extension	lambda_cid13_p0	lambda_cid13_p1	lambda_cid13_p2	lambda_cid13_p3	lambda_cid13_p4	lambda_cid13_p5	lambda_cid14_p0	/jointset/ground_pelvis/pelvis_tilt/accel	/jointset/ground_pelvis/pelvis_tx/accel	/jointset/ground_pelvis/pelvis_ty/accel	/jointset/hip_l/hip_flexion_l/accel	/jointset/hip_l/hip_adduction_l/accel	/jointset/hip_l/hip_rotation_l/accel	/jointset/back/lumbar_extension/accel	/jointset/patellofemoral_l/patellar_flexion_l/accel	/jointset/knee_l/knee_flexion_l/accel	/jointset/knee_l/knee_adduction_l/accel	/jointset/knee_l/knee_rotation_l/accel	/jointset/ankle_l/ankle_angle_l/accel	/jointset/subtalar_l/subtalar_angle_l/accel	gamma_cid13_p0	gamma_cid13_p1	gamma_cid13_p2	gamma_cid13_p3	gamma_cid13_p4	gamma_cid13_p5	gamma_cid14_p0
1	0.05230285020682785	0.1646845080504746	0.8085238411671328	0.3679080158634684	-0.483658992219798	-0.2631017034806479	-0.2593249044454549	0.8210527513075471	0.8210527513074961	-0.1725066878909512	-0.1741740921677581	0.4362487094413212	0.1235765918265683	-0.08608907948063199	0.008179747328489376	-0.004142848489009925	0.07964287440572376	0.001310372516192977	-0.002048561126104813	0.05706467794640119	-0.006629779071114985	-0.006629779071111537	0.0004280992165868776	0.002259786579167331	-0.0003951161444756473	0.001936529993253668	0.006727911792626749	0.1078055582237153	-0.01404201679673312	-0.2689745859551626	-0.1234856022339331	-0.008774026876579437	0.05540934395377195	-77.13321015214814	17.42300483089831	-3.235816278527618	18.13848324375023	-579.0965292467582	-40.35268135506301	-25.03549565349057	-0.4842518328723474	-0.2666531809694737	0.6042373885188428	-0.8646369265258811	0.5545421396892847	-1.080525223455154	0.7205637239982471	-3.154486274743377	-3.154486274743288	-0.1476143364987655	0.06119689727496883	-2.021792466573829	-0.7971378217172007	1.915605193119622e-09	3.59482996511111e-08	-1.562794943182434e-08	1.298445204850863e-08	1.575630703012658e-09	4.467671551450582e-08	2.08127192667442e-09
1.01	0.05141858170192219	0.1647531013397288	0.8085126531294792	0.3686603308988164	-0.4836178407129577	-0.2631762222855442	-0.2587186333938982	0.8208289137616328	0.8208289137618096	-0.172508867320901	-0.1741477236616593	0.4361441765766248	0.1235570906046534	-0.09064681426821726	0.005551997193448625	0.001916398442793795	0.07067243915461081	0.006958458684428077	-0.01282885268174298	0.06411092788138383	-0.03816054315668352	-0.03816054315670674	-0.000798560091407289	0.00312039818195041	-0.02047502410241093	-0.005738317676516791	0.00612013815769932	0.108132456452958	-0.01396549933442289	-0.2682226391894855	-0.1239690963990321	-0.008712853769273575	0.05580444745147638	-77.26883244159821	17.401787326385	-3.211420204595032	18.0389055315818	-579.0052421774053	-40.28360286015157	-25.0452636556998	-0.4238633440742938	-0.2588694357872319	0.608442082563626	-0.9354012185364798	0.5757238325287671	-1.072822809947551	0.6848649527483009	-3.155794757662911	-3.155794757667422	-0.1003719176714267	0.1144623568589871	-1.995622158315166	-0.7378952814551808	7.027933182673103e-09	6.401034556607476e-08	-3.898078078511533e-08	1.739700426203424e-08	5.857786161657793e-10	7.899020464297317e-08	6.572714356246001e-09
1.02	0.05049227004077334	0.1647958104264314	0.8085623923085551	0.3693185107027729	-0.4835190519490302	-0.263357752343682	-0.2580442579780761	0.8202890839185624	0.8202890839186017	-0.1725213493816753	-0.1741095552264915	0.435839938192235	0.1234637934976634	-0.09449771075098264	0.003002906818177207	0.008042594856287754	0.06081582813815255	0.0128378239383464	-0.02345081177058683	0.07068555079624932	-0.06982823853027473	-0.06982823853032671	-0.001632426988299548	0.004619772387927084	-0.04033621997679333	-0.0128226470201847	0.005512364521389198	0.1084593546817388	-0.01388898187175657	-0.2674706924242811	-0.124452590564419	-0.008651680663011699	0.05619955094833368	-77.41227074950852	17.37607410985051	-3.17960939942703	17.95678008254229	-579.0498923356605	-40.24089331904739	-25.06950123398339	-0.3428841719105276	-0.2509212290138254	0.6176272848566225	-1.041872079595327	0.6007979568254272	-1.048858730096842	0.6262383199738613	-3.181872532347816	-3.181872532348149	-0.06905585427883978	0.1889494179134326	-1.978050049860972	-0.6790341564955402	7.277641799843124e-09	7.401600029143921e-08	-4.162723287616688e-08	1.868024086342652e-08	-1.664995265374785e-09	8.510807637795728e-08	7.499259127356295e-09
1.03	0.0495300388524936	0.1648132377525244	0.8086736297905812	0.3698752924190479	-0.483360044636273	-0.2636441124186256	-0.2573061480748104	0.819432135593999	0.8194321355940893	-0.1725398168755645	-0.1740524179862321	0.4353380701380907	0.1233029823549077	-0.09791831388114457	0.0004774556538047249	0.0142069829663319	0.05054147902621742	0.01902561110416128	-0.03374628906942402	0.07688527233294666	-0.1015623034065724	-0.1015623034065659	-0.001959214104847423	0.006977025890819231	-0.0600141972461729	-0.01921164495603294	0.00535138127852769	0.1085680712552861	-0.01384791267918194	-0.267018241077229	-0.1244978178224536	-0.008674139491083177	0.05617942263505468	-77.41580262649339	17.37317397557016	-3.16398673398673	17.94555339495833	-578.9187860347311	-40.19904587084164	-25.1080528474862	-0.3371172575696834	-0.2541184745968761	0.6161559867174676	-1.020072901127178	0.6370661797607878	-1.008647014279506	0.6091654399608879	-3.169306702685555	-3.1693067026771	0.0007974237962582766	0.2845122462502626	-1.959188907273614	-0.5996502120948503	7.477731851988798e-09	8.383740612711379e-08	-4.406239538290974e-08	1.993154567285824e-08	-3.928635695840802e-09	9.093823773137506e-08	8.389427391747575e-09
1.04	0.04853450785820788	0.1648052582840848	0.8088465734362361	0.3703293593292163	-0.4831373000352534	-0.2640311782234151	-0.2565075756823126	0.8182578199732068	0.8182578199732106	-0.1725584947275591	-0.1739666284251207	0.4346401188428587	0.1230821177127923	-0.1011576719716977	-0.002078452088357051	0.02038382758146178	0.04027286694875392	0.02558528160205763	-0.04359195774836812	0.08277804864726561	-0.1333016977795156	-0.1333016977794493	-0.001674498655829209	0.01035023658468888	-0.07955286818741605	-0.0248333468904469	0.005190398033578189	0.1086767878289048	-0.01380684348568818	-0.2665657897307676	-0.1245430450805321	-0.008696598319087352	0.05615929432002401	-77.42748897562576	17.36662464604902	-3.141983192381612	17.95202349214426	-578.9251809336198	-40.18155879813158	-25.16065050816304	-0.3066351639905246	-0.2570125445703849	0.6201185858735904	-1.04072467270114	0.6751746232413853	-0.9588970061186149	0.5648492754973664	-3.182938431676996	-3.182938431677063	0.05324465883402355	0.3921408561088155	-1.950188784232116	-0.5255749562078618	1.295058796119157e-09	4.003610710582543e-08	-1.365028859798423e-08	1.160349929580644e-08	-7.258812920416204e-09	3.622329742255705e-08	3.660503654991674e-09
